{"scene":0,"scenes":[{"nodes":[0]}],"asset":{"version":"2.0","generator":"https://github.com/mikedh/trimesh"},"accessors":[{"componentType":5125,"type":"SCALAR","bufferView":0,"count":4021488,"max":[670178],"min":[0]},{"componentType":5126,"type":"VEC3","byteOffset":0,"bufferView":1,"count":670179,"max":[120600.0,195600.0,114.70600128173828],"min":[-120798.0,-195600.0,-1339.97998046875]}],"meshes":[{"name":"geometry_0","extras":{"processed":true},"primitives":[{"attributes":{"POSITION":1},"indices":0,"mode":4}]}],"nodes":[{"name":"world","children":[1]},{"name":"geometry_0","mesh":0}],"buffers":[{"uri":"gltf_buffer_0.bin","byteLength":16085952},{"uri":"gltf_buffer_1.bin","byteLength":8042148}],"bufferViews":[{"buffer":0,"byteOffset":0,"byteLength":16085952},{"buffer":1,"byteOffset":0,"byteLength":8042148}]}